  http://www.shotpix.com/images/23019218363164581101.jpg

   
http://www.imdb.com/title/tt1988591/

Plot
Get ready for an explosive, action-fueled ride when hardened criminals race for their freedom in vicious new vehicles and face off in the ultimate blood sport in the all-new original feature DEATH RACE 3: INFERNO.
 
In this all-new original feature film based on the hit franchise, the popular Death Race is transported across the globe to the unforgiving and rugged terrain of South Africa where Frankenstein - the greatest Death Race driver of all time - takes on this ultimate challenge to not only save himself, but his pit crew, as well.




Director: 
Roel Reiné

 Writers: 
Tony Giglio (screenplay), Tony Giglio (story)
 
Stars:
 Danny Trejo, Ving Rhames and Dougray Scott

Genres:
 Action , Crime , Thriller 

Country:
USA 

Language:
English 

Format                                   : AVI
Format/Info                              : Audio Video Interleave
File size                                : 694 MiB
Duration                                 : 1h 45mn
Overall bit rate                         : 923 Kbps
Writing application                      : Lavf54.32.100

Video
ID                                       : 0
Format                                   : MPEG-4 Visual
Format profile                           : Simple@L3
Format settings, BVOP                    : No
Format settings, QPel                    : No
Format settings, GMC                     : No warppoints
Format settings, Matrix                  : Default (H.263)
Codec ID                                 : XVID
Codec ID/Hint                            : XviD
Duration                                 : 1h 45mn
Bit rate                                 : 848 Kbps
Width                                    : 640 pixels
Height                                   : 320 pixels
Display aspect ratio                     : 16:9
Frame rate                               : 23.976 fps
Color space                              : YUV
Chroma subsampling                       : 4:2:0
Bit depth                                : 8 bits
Scan type                                : Progressive
Compression mode                         : Lossy
Bits/(Pixel*Frame)                       : 0.173
Stream size                              : 638 MiB (92%)
Writing library                          : XviD 64

Audio
ID                                       : 1
Format                                   : AC-3
Format/Info                              : Audio Coding 3
Mode extension                           : CM (complete main)
Format settings, Endianness              : Big
Codec ID                                 : 2000
Duration                                 : 1h 45mn
Bit rate mode                            : Constant
Bit rate                                 : 64.0 Kbps
Channel(s)                               : 2 channels
Channel positions                        : Front: L R
Sampling rate                            : 48.0 KHz
Bit depth                                : 16 bits
Compression mode                         : Lossy
Stream size                              : 48.2 MiB (7%)
Alignment                                : Aligned on interleaves
Interleave, duration                     : 32 ms (0.77 video frame)
Title                                    : asd


 
http://www.shotpix.com/images/89056833790738335420.png 
http://www.shotpix.com/images/86911472234406903451.png 
http://www.shotpix.com/images/23813385639789573760.png 
http://www.shotpix.com/images/28868609463695153021.png